<svg width="110" height="30" xmlns="http://www.w3.org/2000/svg" xmlns:xlink="http://www.w3.org/1999/xlink" xml:space="preserve" overflow="hidden"><defs><clipPath id="clip0"><path d="M24.4116 9.71473C13.5538 12.5829 7.25226 13.7519 3.69483 14.2109 3.53283 14.2329 3.41969 14.3796 3.44212 14.5387 3.44677 14.5717 3.45721 14.6037 3.47294 14.6333L11.5788 29.845C11.6545 29.9873 11.8333 30.0426 11.9783 29.9683 12.0321 29.9408 12.0759 29.8978 12.1039 29.845L20.1372 14.7054C20.2131 14.5632 20.1572 14.3875 20.0123 14.313 19.9706 14.2916 19.9244 14.2802 19.8774 14.2798 19.8447 14.2802 19.8122 14.2854 19.781 14.2953L14.7935 15.9279C14.7605 15.939 14.7258 15.9447 14.6909 15.945 14.4106 15.945 14.2732 15.5426 14.563 15.3938L24.628 10.2527C24.9146 10.1062 24.782 9.70388 24.4969 9.70388 24.4681 9.7038 24.4394 9.70744 24.4116 9.71473"/></clipPath><linearGradient x1="3.35891" y1="19.6221" x2="24.3171" y2="19.6221" gradientUnits="userSpaceOnUse" spreadMethod="pad" id="fill1"><stop offset="0" stop-color="#BD1823"/><stop offset="0.3" stop-color="#C72422"/><stop offset="0.84" stop-color="#E1441F"/><stop offset="1" stop-color="#E94F1E"/></linearGradient><clipPath id="clip2"><path d="M25.4256 0.0124031C25.4256 0.0124031 17.6869 3.81085 11.9555 4.96434 4.58399 6.44496 0.35219 6.51473 0.35219 6.51473 0.158296 6.56527 0.0428629 6.76054 0.0943647 6.95093 0.100769 6.97457 0.109629 6.99752 0.120818 7.01938 0.120818 7.01938 2.39189 11.6279 2.76619 12.1302 10.437 10.4837 19.3412 7.39535 23.5122 5.09225 23.5675 5.06202 25.8409 0.518605 25.8409 0.518605 25.9325 0.343403 25.8622 0.128465 25.6837 0.0385193 25.6345 0.0137518 25.5802 0.000310203 25.5251-0.000775064 25.4928-0.000751998 25.4607 0.00341874 25.4295 0.011628"/></clipPath><linearGradient x1="-4.44109" y1="5.91812" x2="25.3899" y2="5.91812" gradientUnits="userSpaceOnUse" spreadMethod="pad" id="fill3"><stop offset="0" stop-color="#BD1823"/><stop offset="0.3" stop-color="#C72422"/><stop offset="0.84" stop-color="#E1441F"/><stop offset="1" stop-color="#E94F1E"/></linearGradient></defs><g><g clip-path="url(#clip0)"><path d="M3.29922 9.70388 24.4419 9.70388 24.4419 30 3.29922 30Z" fill="url(#fill1)" transform="matrix(1.01866 0 0 1 0.0173726 0)"/></g><g clip-path="url(#clip2)"><path d="M0 0 25.476 0 25.476 12.1302 1.13554e-06 12.1302Z" fill="url(#fill3)" transform="matrix(1.01866 0 0 1 0.0173726 0)"/></g><path d="M59.1891 16.1147C59.0374 16.1771 58.9638 16.3497 59.024 16.5023 59.3387 17.3091 59.495 18.169 59.4845 19.0349 59.4845 22.6318 57.3139 24.6054 54.738 24.6054 52.1891 24.6054 49.9907 22.607 49.9907 19.0349 49.9907 15.562 52.1147 13.4884 54.738 13.4884 55.3001 13.4885 55.8572 13.5936 56.3806 13.7984 56.5357 13.8593 56.7106 13.7829 56.7715 13.6279 56.7768 13.6143 56.7812 13.6003 56.7845 13.586L57.4357 10.7109C57.4706 10.5556 57.3785 10.3999 57.2256 10.3558 56.4156 10.1311 55.5786 10.0181 54.738 10.0202 50.1163 10.0202 46.1186 13.393 46.1186 19.0395 46.1186 24.8605 50.1163 28.1093 54.738 28.1093 59.3116 28.1093 63.3318 24.8364 63.3318 19.0395 63.3318 17.5434 63.0597 16.2116 62.5744 15.0605 62.5103 14.9105 62.338 14.8395 62.1868 14.9008Z" fill="#937147" transform="matrix(1.01866 0 0 1 -2.0705 -2.7907)"/><path d="M61.7248 13.5155C61.0097 12.4892 60.0629 11.6458 58.9612 11.0535 58.8157 10.9743 58.6336 11.028 58.5543 11.1735 58.5419 11.1963 58.5325 11.2205 58.5264 11.2457L57.5543 15.2147C57.515 15.3757 57.6136 15.5381 57.7745 15.5774 57.8387 15.593 57.9062 15.5871 57.9667 15.5605L61.5992 13.9605C61.7504 13.8948 61.8198 13.719 61.7541 13.5678 61.7461 13.5495 61.7363 13.5319 61.7248 13.5155" fill="#937147" transform="matrix(1.01866 0 0 1 -2.0705 -2.7907)"/><path d="M93.1388 10.2961 79.7674 10.2961C79.6015 10.2961 79.4674 10.4305 79.4674 10.5961L79.4674 13.2791C79.4674 13.4442 79.6008 13.5782 79.7659 13.5791L84.0442 13.5984C84.2488 13.5981 84.4372 13.712 84.5318 13.8938 84.5543 13.9366 84.5659 13.9842 84.5659 14.0326L84.5659 27.4806C84.5659 27.6463 84.7 27.7806 84.8659 27.7806L88.0442 27.786C88.2101 27.7865 88.3442 27.6525 88.345 27.4868 88.345 27.4866 88.345 27.4863 88.345 27.486L88.345 14.1527C88.345 13.8483 88.5915 13.6016 88.8961 13.6016L93.145 13.6016C93.3109 13.6016 93.445 13.4674 93.4457 13.3015L93.4457 10.5992C93.4457 10.4336 93.3116 10.2992 93.1457 10.2992" fill="#937147" transform="matrix(1.01866 0 0 1 -2.0705 -2.7907)"/><path d="M104.774 18.8543C104.767 18.8433 104.761 18.8319 104.756 18.8202 104.727 18.7515 104.712 18.6777 104.712 18.6031 104.712 18.4965 104.743 18.3923 104.8 18.3023L109.593 10.7612C109.682 10.6216 109.641 10.436 109.502 10.3471 109.453 10.3164 109.398 10.3001 109.34 10.3L105.839 10.2961C105.734 10.2957 105.636 10.3505 105.582 10.4403L102.473 15.5512C102.387 15.6926 102.202 15.7375 102.06 15.6513 102.019 15.6264 101.985 15.592 101.96 15.5512L98.8372 10.4457C98.783 10.3566 98.6861 10.3022 98.5814 10.3023L94.9659 10.3023C94.8 10.3029 94.6659 10.4381 94.6659 10.6042 94.6667 10.66 94.6822 10.7147 94.7116 10.762L99.5829 18.5271C99.6372 18.6146 99.6659 18.7156 99.6659 18.8186 99.6643 18.9156 99.6395 19.0108 99.5938 19.0961L99.5798 19.1202 94.3946 27.3233C94.3062 27.4627 94.3473 27.6477 94.4868 27.7363 94.5349 27.7669 94.5907 27.7831 94.6481 27.7829L98.1279 27.7884C98.2318 27.7884 98.3287 27.7351 98.3837 27.6473L101.908 21.9845C101.995 21.8439 102.181 21.8009 102.321 21.8885 102.361 21.9136 102.395 21.9478 102.419 21.9884L105.825 27.638C105.879 27.7279 105.977 27.7829 106.081 27.7829L109.699 27.7876C109.865 27.7872 110 27.6522 109.999 27.4861 109.999 27.4315 109.984 27.3778 109.956 27.331Z" fill="#937147" transform="matrix(1.01866 0 0 1 -2.0705 -2.7907)"/><path d="M75.624 19.7837 75.5814 19.807 75.624 19.7837" fill="#937147" transform="matrix(1.01866 0 0 1 -2.0705 -2.7907)"/><path d="M75.2101 20.4388C75.1998 20.4216 75.1915 20.4035 75.1853 20.3845 75.0884 20.0899 75.3574 19.9194 75.531 19.8326L75.6628 19.762 75.624 19.7837 75.6667 19.7597C76.1036 19.5171 76.502 19.2109 76.8488 18.8512 77.8233 17.8519 78.1977 16.7775 78.1977 15.3287 78.1977 12.2566 75.7744 10.3085 72.6527 10.3085L65.5271 10.3101C65.3618 10.3105 65.2279 10.4447 65.2279 10.6101L65.2279 27.4977C65.2279 27.6633 65.3622 27.7977 65.5279 27.7977L68.6287 27.7977C68.794 27.7977 68.9279 27.6637 68.9279 27.4985 68.9279 27.4982 68.9279 27.4979 68.9279 27.4977L68.9279 21.0853C68.9367 20.7877 69.1805 20.551 69.4783 20.5512L70.8736 20.5512C71.0204 20.5567 71.1554 20.6326 71.2364 20.755L71.2488 20.7752 75.0527 27.6434C75.1054 27.7392 75.2061 27.7987 75.3155 27.7985L78.9233 27.7985C79.0891 27.7983 79.2233 27.6638 79.2233 27.4981 79.2225 27.4457 79.2093 27.3943 79.1829 27.3488ZM72.3256 17.3271 69.4279 17.3271C69.1702 17.3029 68.9642 17.1026 68.9326 16.8457 68.9318 16.8347 68.9318 16.8235 68.9326 16.8124L68.9326 13.9054C68.9329 13.7396 69.0675 13.6054 69.2333 13.6054L72.2798 13.6054C73.5039 13.6054 74.3783 14.3295 74.3783 15.4287 74.3783 16.6279 73.5543 17.3271 72.3302 17.3271" fill="#937147" transform="matrix(1.01866 0 0 1 -2.0705 -2.7907)"/><path d="M42.2039 10.4395 38.6899 19.4318C38.6828 19.4509 38.6729 19.469 38.6605 19.4853 38.5912 19.5719 38.4649 19.586 38.3783 19.5167 38.3547 19.4978 38.3355 19.4739 38.3225 19.4465L34.7775 10.4388C34.7434 10.3526 34.6602 10.296 34.5674 10.2961L30.3651 10.3008C30.2405 10.3008 30.1395 10.4018 30.1395 10.5264 30.1395 10.5578 30.1461 10.589 30.1589 10.6178L38.2426 28.8721C38.2926 28.9862 38.4257 29.0381 38.5398 28.9881 38.5917 28.9653 38.6331 28.924 38.6558 28.8721L46.714 10.6202C46.7645 10.5063 46.7131 10.373 46.5992 10.3225 46.5704 10.3097 46.5392 10.3031 46.5078 10.3031L42.4147 10.2985C42.3216 10.2984 42.238 10.3553 42.2039 10.4419" fill="#937147" transform="matrix(1.01866 0 0 1 -2.0705 -2.7907)"/></g></svg>